<svg id="visual" viewBox="0 0 900 100" width="900" height="100" xmlns="http://www.w3.org/2000/svg" xmlns:xlink="http://www.w3.org/1999/xlink" version="1.1"><rect x="0" y="0" width="900" height="100" fill="#ffffff"></rect><path d="M0 41L8.8 44.3C17.7 47.7 35.3 54.3 53 58C70.7 61.7 88.3 62.3 106 62.7C123.7 63 141.3 63 159 59.3C176.7 55.7 194.3 48.3 212 46.3C229.7 44.3 247.3 47.7 265 50.3C282.7 53 300.3 55 318 53.3C335.7 51.7 353.3 46.3 371 43.8C388.7 41.3 406.3 41.7 423.8 43.7C441.3 45.7 458.7 49.3 476.2 50C493.7 50.7 511.3 48.3 529 49.5C546.7 50.7 564.3 55.3 582 54.8C599.7 54.3 617.3 48.7 635 47.5C652.7 46.3 670.3 49.7 688 52.8C705.7 56 723.3 59 741 59.7C758.7 60.3 776.3 58.7 794 56.7C811.7 54.7 829.3 52.3 847 52.5C864.7 52.7 882.3 55.3 891.2 56.7L900 58L900 101L891.2 101C882.3 101 864.7 101 847 101C829.3 101 811.7 101 794 101C776.3 101 758.7 101 741 101C723.3 101 705.7 101 688 101C670.3 101 652.7 101 635 101C617.3 101 599.7 101 582 101C564.3 101 546.7 101 529 101C511.3 101 493.7 101 476.2 101C458.7 101 441.3 101 423.8 101C406.3 101 388.7 101 371 101C353.3 101 335.7 101 318 101C300.3 101 282.7 101 265 101C247.3 101 229.7 101 212 101C194.3 101 176.7 101 159 101C141.3 101 123.7 101 106 101C88.3 101 70.7 101 53 101C35.3 101 17.7 101 8.8 101L0 101Z" fill="#dcd7c9"></path><path d="M0 57L8.8 57.3C17.7 57.7 35.3 58.3 53 59.8C70.7 61.3 88.3 63.7 106 63.2C123.7 62.7 141.3 59.3 159 58.8C176.7 58.3 194.3 60.7 212 60.7C229.7 60.7 247.3 58.3 265 58C282.7 57.7 300.3 59.3 318 61.2C335.7 63 353.3 65 371 64.5C388.7 64 406.3 61 423.8 61.5C441.3 62 458.7 66 476.2 67.5C493.7 69 511.3 68 529 66.8C546.7 65.7 564.3 64.3 582 63.8C599.7 63.3 617.3 63.7 635 64.5C652.7 65.3 670.3 66.7 688 66C705.7 65.3 723.3 62.7 741 61.8C758.7 61 776.3 62 794 60.8C811.7 59.7 829.3 56.3 847 56.8C864.7 57.3 882.3 61.7 891.2 63.8L900 66L900 101L891.2 101C882.3 101 864.7 101 847 101C829.3 101 811.7 101 794 101C776.3 101 758.7 101 741 101C723.3 101 705.7 101 688 101C670.3 101 652.7 101 635 101C617.3 101 599.7 101 582 101C564.3 101 546.7 101 529 101C511.3 101 493.7 101 476.2 101C458.7 101 441.3 101 423.8 101C406.3 101 388.7 101 371 101C353.3 101 335.7 101 318 101C300.3 101 282.7 101 265 101C247.3 101 229.7 101 212 101C194.3 101 176.7 101 159 101C141.3 101 123.7 101 106 101C88.3 101 70.7 101 53 101C35.3 101 17.7 101 8.8 101L0 101Z" fill="#ccc0ab"></path><path d="M0 72L8.8 72.2C17.7 72.3 35.3 72.7 53 71C70.7 69.3 88.3 65.7 106 66C123.7 66.3 141.3 70.7 159 71.7C176.7 72.7 194.3 70.3 212 70.8C229.7 71.3 247.3 74.7 265 76.3C282.7 78 300.3 78 318 76C335.7 74 353.3 70 371 67.5C388.7 65 406.3 64 423.8 65C441.3 66 458.7 69 476.2 69.3C493.7 69.7 511.3 67.3 529 68.3C546.7 69.3 564.3 73.7 582 75.7C599.7 77.7 617.3 77.3 635 77C652.7 76.7 670.3 76.3 688 75.2C705.7 74 723.3 72 741 71C758.7 70 776.3 70 794 69.2C811.7 68.3 829.3 66.7 847 66.5C864.7 66.3 882.3 67.7 891.2 68.3L900 69L900 101L891.2 101C882.3 101 864.7 101 847 101C829.3 101 811.7 101 794 101C776.3 101 758.7 101 741 101C723.3 101 705.7 101 688 101C670.3 101 652.7 101 635 101C617.3 101 599.7 101 582 101C564.3 101 546.7 101 529 101C511.3 101 493.7 101 476.2 101C458.7 101 441.3 101 423.8 101C406.3 101 388.7 101 371 101C353.3 101 335.7 101 318 101C300.3 101 282.7 101 265 101C247.3 101 229.7 101 212 101C194.3 101 176.7 101 159 101C141.3 101 123.7 101 106 101C88.3 101 70.7 101 53 101C35.3 101 17.7 101 8.8 101L0 101Z" fill="#bda98f"></path><path d="M0 85L8.8 83.2C17.7 81.3 35.3 77.7 53 77.3C70.7 77 88.3 80 106 81.7C123.7 83.3 141.3 83.7 159 81.8C176.7 80 194.3 76 212 74.2C229.7 72.3 247.3 72.7 265 73.2C282.7 73.7 300.3 74.3 318 75C335.7 75.7 353.3 76.3 371 76.5C388.7 76.7 406.3 76.3 423.8 77.7C441.3 79 458.7 82 476.2 81.8C493.7 81.7 511.3 78.3 529 77.3C546.7 76.3 564.3 77.7 582 79.2C599.7 80.7 617.3 82.3 635 81.8C652.7 81.3 670.3 78.7 688 78.7C705.7 78.7 723.3 81.3 741 82.2C758.7 83 776.3 82 794 80.7C811.7 79.3 829.3 77.7 847 78.3C864.7 79 882.3 82 891.2 83.5L900 85L900 101L891.2 101C882.3 101 864.7 101 847 101C829.3 101 811.7 101 794 101C776.3 101 758.7 101 741 101C723.3 101 705.7 101 688 101C670.3 101 652.7 101 635 101C617.3 101 599.7 101 582 101C564.3 101 546.7 101 529 101C511.3 101 493.7 101 476.2 101C458.7 101 441.3 101 423.8 101C406.3 101 388.7 101 371 101C353.3 101 335.7 101 318 101C300.3 101 282.7 101 265 101C247.3 101 229.7 101 212 101C194.3 101 176.7 101 159 101C141.3 101 123.7 101 106 101C88.3 101 70.7 101 53 101C35.3 101 17.7 101 8.8 101L0 101Z" fill="#af9274"></path><path d="M0 89L8.8 89.7C17.7 90.3 35.3 91.7 53 91.7C70.7 91.7 88.3 90.3 106 90.2C123.7 90 141.3 91 159 91.2C176.7 91.3 194.3 90.7 212 90C229.7 89.3 247.3 88.7 265 88.8C282.7 89 300.3 90 318 89.5C335.7 89 353.3 87 371 85.8C388.7 84.7 406.3 84.3 423.8 84.7C441.3 85 458.7 86 476.2 87.3C493.7 88.7 511.3 90.3 529 91.3C546.7 92.3 564.3 92.7 582 91.8C599.7 91 617.3 89 635 89C652.7 89 670.3 91 688 90.5C705.7 90 723.3 87 741 86.3C758.7 85.7 776.3 87.3 794 88.7C811.7 90 829.3 91 847 91C864.7 91 882.3 90 891.2 89.5L900 89L900 101L891.2 101C882.3 101 864.7 101 847 101C829.3 101 811.7 101 794 101C776.3 101 758.7 101 741 101C723.3 101 705.7 101 688 101C670.3 101 652.7 101 635 101C617.3 101 599.7 101 582 101C564.3 101 546.7 101 529 101C511.3 101 493.7 101 476.2 101C458.7 101 441.3 101 423.8 101C406.3 101 388.7 101 371 101C353.3 101 335.7 101 318 101C300.3 101 282.7 101 265 101C247.3 101 229.7 101 212 101C194.3 101 176.7 101 159 101C141.3 101 123.7 101 106 101C88.3 101 70.7 101 53 101C35.3 101 17.7 101 8.8 101L0 101Z" fill="#a27b5c"></path></svg>