<svg id="visual" viewBox="0 0 900 100" width="900" height="100" xmlns="http://www.w3.org/2000/svg" xmlns:xlink="http://www.w3.org/1999/xlink" version="1.1"><rect x="0" y="0" width="900" height="100" fill="#ffffff"></rect><path d="M0 69L8.8 63C17.7 57 35.3 45 53 45.2C70.7 45.3 88.3 57.7 106 58.2C123.7 58.7 141.3 47.3 159 49.5C176.7 51.7 194.3 67.3 212 74.7C229.7 82 247.3 81 265 76.7C282.7 72.3 300.3 64.7 318 64.3C335.7 64 353.3 71 371 69.8C388.7 68.7 406.3 59.3 423.8 59.5C441.3 59.7 458.7 69.3 476.2 67.2C493.7 65 511.3 51 529 45.3C546.7 39.7 564.3 42.3 582 48.2C599.7 54 617.3 63 635 67.7C652.7 72.3 670.3 72.7 688 72.5C705.7 72.3 723.3 71.7 741 74C758.7 76.3 776.3 81.7 794 79.2C811.7 76.7 829.3 66.3 847 62.5C864.7 58.7 882.3 61.3 891.2 62.7L900 64L900 101L891.2 101C882.3 101 864.7 101 847 101C829.3 101 811.7 101 794 101C776.3 101 758.7 101 741 101C723.3 101 705.7 101 688 101C670.3 101 652.7 101 635 101C617.3 101 599.7 101 582 101C564.3 101 546.7 101 529 101C511.3 101 493.7 101 476.2 101C458.7 101 441.3 101 423.8 101C406.3 101 388.7 101 371 101C353.3 101 335.7 101 318 101C300.3 101 282.7 101 265 101C247.3 101 229.7 101 212 101C194.3 101 176.7 101 159 101C141.3 101 123.7 101 106 101C88.3 101 70.7 101 53 101C35.3 101 17.7 101 8.8 101L0 101Z" fill="#A27B5C" stroke-linecap="round" stroke-linejoin="miter"></path></svg>