<svg id="visual" viewBox="0 0 900 100" width="900" height="100" xmlns="http://www.w3.org/2000/svg" xmlns:xlink="http://www.w3.org/1999/xlink" version="1.1"><rect x="0" y="0" width="900" height="100" fill="#ffffff"></rect><path d="M0 15L9.3 16.2C18.7 17.3 37.3 19.7 56.2 21.3C75 23 94 24 112.8 23.3C131.7 22.7 150.3 20.3 169 20.8C187.7 21.3 206.3 24.7 225 28.3C243.7 32 262.3 36 281.2 38.2C300 40.3 319 40.7 337.8 39.3C356.7 38 375.3 35 394 31.7C412.7 28.3 431.3 24.7 450 25.8C468.7 27 487.3 33 506.2 32.5C525 32 544 25 562.8 21C581.7 17 600.3 16 619 17.5C637.7 19 656.3 23 675 25.2C693.7 27.3 712.3 27.7 731.2 28.8C750 30 769 32 787.8 33.2C806.7 34.3 825.3 34.7 844 35C862.7 35.3 881.3 35.7 890.7 35.8L900 36L900 101L890.7 101C881.3 101 862.7 101 844 101C825.3 101 806.7 101 787.8 101C769 101 750 101 731.2 101C712.3 101 693.7 101 675 101C656.3 101 637.7 101 619 101C600.3 101 581.7 101 562.8 101C544 101 525 101 506.2 101C487.3 101 468.7 101 450 101C431.3 101 412.7 101 394 101C375.3 101 356.7 101 337.8 101C319 101 300 101 281.2 101C262.3 101 243.7 101 225 101C206.3 101 187.7 101 169 101C150.3 101 131.7 101 112.8 101C94 101 75 101 56.2 101C37.3 101 18.7 101 9.3 101L0 101Z" fill="#dcd7c9"></path><path d="M0 52L9.3 49.3C18.7 46.7 37.3 41.3 56.2 38.3C75 35.3 94 34.7 112.8 35.8C131.7 37 150.3 40 169 42.3C187.7 44.7 206.3 46.3 225 43.8C243.7 41.3 262.3 34.7 281.2 34.8C300 35 319 42 337.8 43C356.7 44 375.3 39 394 36C412.7 33 431.3 32 450 31.2C468.7 30.3 487.3 29.7 506.2 33.7C525 37.7 544 46.3 562.8 46.3C581.7 46.3 600.3 37.7 619 33.7C637.7 29.7 656.3 30.3 675 33.3C693.7 36.3 712.3 41.7 731.2 43.3C750 45 769 43 787.8 40.2C806.7 37.3 825.3 33.7 844 35C862.7 36.3 881.3 42.7 890.7 45.8L900 49L900 101L890.7 101C881.3 101 862.7 101 844 101C825.3 101 806.7 101 787.8 101C769 101 750 101 731.2 101C712.3 101 693.7 101 675 101C656.3 101 637.7 101 619 101C600.3 101 581.7 101 562.8 101C544 101 525 101 506.2 101C487.3 101 468.7 101 450 101C431.3 101 412.7 101 394 101C375.3 101 356.7 101 337.8 101C319 101 300 101 281.2 101C262.3 101 243.7 101 225 101C206.3 101 187.7 101 169 101C150.3 101 131.7 101 112.8 101C94 101 75 101 56.2 101C37.3 101 18.7 101 9.3 101L0 101Z" fill="#cfc5b1"></path><path d="M0 64L9.3 60.7C18.7 57.3 37.3 50.7 56.2 47C75 43.3 94 42.7 112.8 45.5C131.7 48.3 150.3 54.7 169 55C187.7 55.3 206.3 49.7 225 49.8C243.7 50 262.3 56 281.2 58.2C300 60.3 319 58.7 337.8 58.8C356.7 59 375.3 61 394 60.5C412.7 60 431.3 57 450 53.3C468.7 49.7 487.3 45.3 506.2 44.7C525 44 544 47 562.8 49C581.7 51 600.3 52 619 53.5C637.7 55 656.3 57 675 56C693.7 55 712.3 51 731.2 50.8C750 50.7 769 54.3 787.8 56.3C806.7 58.3 825.3 58.7 844 59.2C862.7 59.7 881.3 60.3 890.7 60.7L900 61L900 101L890.7 101C881.3 101 862.7 101 844 101C825.3 101 806.7 101 787.8 101C769 101 750 101 731.2 101C712.3 101 693.7 101 675 101C656.3 101 637.7 101 619 101C600.3 101 581.7 101 562.8 101C544 101 525 101 506.2 101C487.3 101 468.7 101 450 101C431.3 101 412.7 101 394 101C375.3 101 356.7 101 337.8 101C319 101 300 101 281.2 101C262.3 101 243.7 101 225 101C206.3 101 187.7 101 169 101C150.3 101 131.7 101 112.8 101C94 101 75 101 56.2 101C37.3 101 18.7 101 9.3 101L0 101Z" fill="#c3b29a"></path><path d="M0 53L9.3 55.8C18.7 58.7 37.3 64.3 56.2 66C75 67.7 94 65.3 112.8 63.8C131.7 62.3 150.3 61.7 169 60.5C187.7 59.3 206.3 57.7 225 56.5C243.7 55.3 262.3 54.7 281.2 54.5C300 54.3 319 54.7 337.8 57C356.7 59.3 375.3 63.7 394 65.7C412.7 67.7 431.3 67.3 450 68C468.7 68.7 487.3 70.3 506.2 70C525 69.7 544 67.3 562.8 64.3C581.7 61.3 600.3 57.7 619 58.8C637.7 60 656.3 66 675 68C693.7 70 712.3 68 731.2 67C750 66 769 66 787.8 64.3C806.7 62.7 825.3 59.3 844 60.2C862.7 61 881.3 66 890.7 68.5L900 71L900 101L890.7 101C881.3 101 862.7 101 844 101C825.3 101 806.7 101 787.8 101C769 101 750 101 731.2 101C712.3 101 693.7 101 675 101C656.3 101 637.7 101 619 101C600.3 101 581.7 101 562.8 101C544 101 525 101 506.2 101C487.3 101 468.7 101 450 101C431.3 101 412.7 101 394 101C375.3 101 356.7 101 337.8 101C319 101 300 101 281.2 101C262.3 101 243.7 101 225 101C206.3 101 187.7 101 169 101C150.3 101 131.7 101 112.8 101C94 101 75 101 56.2 101C37.3 101 18.7 101 9.3 101L0 101Z" fill="#b7a084"></path><path d="M0 73L9.3 74.3C18.7 75.7 37.3 78.3 56.2 77.3C75 76.3 94 71.7 112.8 71.8C131.7 72 150.3 77 169 77.7C187.7 78.3 206.3 74.7 225 74.3C243.7 74 262.3 77 281.2 76.3C300 75.7 319 71.3 337.8 71.2C356.7 71 375.3 75 394 77.3C412.7 79.7 431.3 80.3 450 80.5C468.7 80.7 487.3 80.3 506.2 78C525 75.7 544 71.3 562.8 70.2C581.7 69 600.3 71 619 70.8C637.7 70.7 656.3 68.3 675 69.5C693.7 70.7 712.3 75.3 731.2 76.5C750 77.7 769 75.3 787.8 74.8C806.7 74.3 825.3 75.7 844 77.2C862.7 78.7 881.3 80.3 890.7 81.2L900 82L900 101L890.7 101C881.3 101 862.7 101 844 101C825.3 101 806.7 101 787.8 101C769 101 750 101 731.2 101C712.3 101 693.7 101 675 101C656.3 101 637.7 101 619 101C600.3 101 581.7 101 562.8 101C544 101 525 101 506.2 101C487.3 101 468.7 101 450 101C431.3 101 412.7 101 394 101C375.3 101 356.7 101 337.8 101C319 101 300 101 281.2 101C262.3 101 243.7 101 225 101C206.3 101 187.7 101 169 101C150.3 101 131.7 101 112.8 101C94 101 75 101 56.2 101C37.3 101 18.7 101 9.3 101L0 101Z" fill="#ad8d6f"></path><path d="M0 89L9.3 88.3C18.7 87.7 37.3 86.3 56.2 85C75 83.7 94 82.3 112.8 82.2C131.7 82 150.3 83 169 82.8C187.7 82.7 206.3 81.3 225 80.5C243.7 79.7 262.3 79.3 281.2 81C300 82.7 319 86.3 337.8 87.2C356.7 88 375.3 86 394 84C412.7 82 431.3 80 450 79.2C468.7 78.3 487.3 78.7 506.2 80.2C525 81.7 544 84.3 562.8 85.2C581.7 86 600.3 85 619 85.7C637.7 86.3 656.3 88.7 675 88.8C693.7 89 712.3 87 731.2 85.5C750 84 769 83 787.8 83.8C806.7 84.7 825.3 87.3 844 88C862.7 88.7 881.3 87.3 890.7 86.7L900 86L900 101L890.7 101C881.3 101 862.7 101 844 101C825.3 101 806.7 101 787.8 101C769 101 750 101 731.2 101C712.3 101 693.7 101 675 101C656.3 101 637.7 101 619 101C600.3 101 581.7 101 562.8 101C544 101 525 101 506.2 101C487.3 101 468.7 101 450 101C431.3 101 412.7 101 394 101C375.3 101 356.7 101 337.8 101C319 101 300 101 281.2 101C262.3 101 243.7 101 225 101C206.3 101 187.7 101 169 101C150.3 101 131.7 101 112.8 101C94 101 75 101 56.2 101C37.3 101 18.7 101 9.3 101L0 101Z" fill="#a27b5c"></path></svg>